<svg xmlns="http://www.w3.org/2000/svg" version="1.1" xmlns:xlink="http://www.w3.org/1999/xlink" xmlns:svgjs="http://svgjs.dev/svgjs" width="100%" height="100%" viewBox="0 0 1000 600"><rect width="1000" height="600" x="0" y="0" fill="#4a171e"/><g><circle r="166.66666666666666" cx="277.0382639567057" cy="299.2604923411117" fill="#E2V144" transform="matrix(1.1325376936526093,0,0,1.132537693652609,0,-38.92379466476065)"/><path d="M195.54541732578974 372.60678008816274L175.0502088622232 372.60678008816274L175.0502088622232 246.7076423833968L172.12232193885654 226.21243391983023L195.54541732578974 224.26050930425248L195.54541732578974 289.05356251579224L248.3558222028104 226.21243391983023L270.01676342290256 226.21243391983023L218.18232085367077 288.1860404644243L201.69940187768074 294.3400250163153L218.6703020075652 300.0060284143119L272.6464396411115 372.60678008816274L249.52155495933602 372.60678008816274L195.54541732578974 299.78914790146996L195.54541732578974 372.60678008816274ZM332.18014041623337 374.2604939985828L332.18014041623337 374.2604939985828Q323.8844608000278 374.2604939985828 316.9442843890847 371.08861649826883Q310.0312180422468 367.916738997955 304.5007649647764 362.46761611280044Q298.9974219514113 356.9913831635406 294.84958214330857 349.67166585512393Q290.70174233520584 342.3519485467074 287.90940573236537 334.00204880229137Q285.14417919363024 325.65214905787536 283.76156592426264 316.8413782236702Q282.4060627190003 308.0034973253597 282.4060627190003 299.4096070039965L282.4060627190003 299.4096070039965Q282.4060627190003 290.62594623389657 283.57179547552596 281.65251501505986Q284.73752823205155 272.67908379622315 287.2858742579447 264.3834041800177Q289.8342202838379 256.0877245638121 293.7651795790987 248.79511731950078Q297.72324893846474 241.52962013929465 303.2537020159351 236.16182744645582Q308.7570450293001 230.79403475361693 315.94121201719054 227.67637738151356Q323.0982689409757 224.5587200094102 332.18014041623337 224.5587200094102L332.18014041623337 224.5587200094102Q340.47582003243883 224.5587200094102 347.415996443382 227.73059750972405Q354.32906279021995 230.90247501003793 359.8595158676903 236.35159789519253Q365.3628588810554 241.82783084445236 369.5106986891581 249.147548152869Q373.65853849726085 256.4672654612856 376.4508751001013 264.8171652057016Q379.2161016388365 273.1670649501176 380.59871490820404 282.03205591253334Q381.95421811346637 290.9241569390542 381.95421811346637 299.4096070039965L381.95421811346637 299.4096070039965Q381.95421811346637 308.1932677740964 380.7884853569408 317.1666989929331Q379.62275260041514 326.1401302117698 377.07440657452196 334.4358098279753Q374.5260605486288 342.73148944418074 370.595101253368 350.02409668849214Q366.63703189400195 357.28959386869826 361.1065788165316 362.6573865615371Q355.6032358031665 368.025179254376 348.39195875117093 371.1428366264794Q341.15357163507 374.2604939985828 332.18014041623337 374.2604939985828ZM302.60306047740914 295.2075470676832L302.60306047740914 295.2075470676832Q302.60306047740914 300.87355046567984 303.00971143898784 307.6510664919915Q303.3892523364613 314.4285825183032 304.5549850929869 321.31453880103584Q305.72071784951254 328.2004950837685 307.83530284972176 334.65269034081723Q309.9227777858258 341.0777755337607 313.2844257348763 346.12024745733663Q316.6731837480322 351.1356093168073 321.4987751587661 354.17193649659487Q326.32436656950006 357.1811536122773 332.9663322752855 357.1811536122773L332.9663322752855 357.1811536122773Q338.90343631433456 357.1811536122773 343.349486827595 354.90390822743655Q347.7955373408555 352.59955277849065 351.0216349693799 348.6414834191246Q354.2477325979042 344.68341405975855 356.2809874057977 339.4782817515512Q358.34135227779643 334.2460393792386 359.56130516253256 328.30893534018946Q360.7812580472687 322.3447212370352 361.2692392011631 316.0009662364075Q361.75722035505754 309.65721123577976 361.75722035505754 303.61166694030976L361.75722035505754 303.61166694030976Q361.75722035505754 297.9456635423131 361.35056939347885 291.16814751600145Q360.9710284960054 284.3906314896898 359.8052957394798 277.55889533516756Q358.6395629829542 270.72715918064546 356.52497798274493 264.22074379538617Q354.4375030466409 257.74143847423227 351.0758550975903 252.7531866788668Q347.68709708443447 247.79204494760666 342.86150567370055 244.75571776781902Q338.0359142629666 241.71939058803136 331.3939485571812 241.71939058803136L331.3939485571812 241.71939058803136Q325.45684451813213 241.71939058803136 321.0107940048717 244.02374603697737Q316.56474349161124 246.32810148592333 313.33864586308687 250.23195071707886Q310.1125482345625 254.1357999482344 308.079293426669 259.3951523846523Q306.0189285546702 264.6545048210701 304.7989756699341 270.6187189242245Q303.57902278519805 276.58293302737866 303.0910416313036 282.872467899796Q302.60306047740914 289.1620027722132 302.60306047740914 295.2075470676832Z " fill="#4a171e" transform="matrix(1.1325376936526093,0,0,1.132537693652609,0,-38.92379466476065)"/><path d="M550.4613642862389 372.60678008816274L529.9661558226724 372.60678008816274L529.9661558226724 246.7076423833968L527.0382688993058 226.21243391983023L550.4613642862389 224.26050930425248L550.4613642862389 289.05356251579224L603.2717691632597 226.21243391983023L624.9327103833518 226.21243391983023L573.0982678141199 288.1860404644243L556.61534883813 294.3400250163153L573.5862489680144 300.0060284143119L627.5623866015608 372.60678008816274L604.4375019197853 372.60678008816274L550.4613642862389 299.78914790146996L550.4613642862389 372.60678008816274ZM706.6153335324602 374.2604939985828L706.6153335324602 374.2604939985828Q691.1897070565749 374.2604939985828 678.9901782092138 368.59449060058614Q666.7906493618528 362.9555972666949 658.2509791687 352.95198361185885Q649.7113089755472 342.9483699570227 645.1839282699711 329.23067751976794Q640.6294375002897 315.51298508251307 640.6294375002897 299.4096070039965L640.6294375002897 299.4096070039965Q640.6294375002897 283.3062289254799 645.0212678853396 269.58853648822503Q649.4130982703896 255.8708440509702 657.8714382712266 245.86723039613415Q666.3026682079584 235.8636167412981 678.6106373117403 230.22472340740674Q690.8914963514171 224.5587200094102 706.6153335324602 224.5587200094102L706.6153335324602 224.5587200094102Q721.9325197519247 224.5587200094102 734.1862687274962 230.22472340740674Q746.4400177030677 235.8636167412981 754.9796878962205 245.86723039613415Q763.5193580893732 255.8708440509702 768.0467387949494 269.58853648822503Q772.6012295646309 283.3062289254799 772.6012295646309 299.4096070039965L772.6012295646309 299.4096070039965Q772.6012295646309 315.51298508251307 768.2093991795808 329.23067751976794Q763.8175687945309 342.9483699570227 755.3592287936939 352.95198361185885Q746.9279988569622 362.9555972666949 734.6200297531801 368.59449060058614Q722.3391707135033 374.2604939985828 706.6153335324602 374.2604939985828ZM752.295791549801 302.44593418378406L752.295791549801 302.44593418378406Q752.295791549801 294.63823572147305 751.2113889855912 287.07452783610916Q750.1540964854865 279.5108199507454 747.7955209083301 272.7061938603284Q745.4640553952788 265.92867783401675 741.74997661286 260.12712411549387Q738.0358978304413 254.3255703969711 732.9120957145495 250.12351046065788Q727.788293598658 245.92145052434464 721.1192178287672 243.53576488308292Q714.4230319947713 241.1500792418212 706.0189121221448 241.1500792418212L706.0189121221448 241.1500792418212Q694.0362637876258 241.1500792418212 685.496593594473 245.7859002038184Q676.9569234013203 250.42172116581557 671.4806904520605 258.12097937170563Q666.0044575028006 265.84734764170094 663.4832215410127 275.68830091190557Q660.9348755151194 285.55636424621537 660.9348755151194 295.9937389267353L660.9348755151194 295.9937389267353Q660.9348755151194 303.9098776454674 662.0734982075398 311.5006955949365Q663.185010835855 319.1186236085108 665.5164763489062 326.00457989124357Q667.8750519260626 332.8905361739762 671.534910580271 338.692089892499Q675.1947692344793 344.49364361102187 680.3185713503709 348.69570354733503Q685.4423734662626 352.8977634836483 692.1114492361532 355.28344912491Q698.8076350701492 357.66913476617174 707.2117549427757 357.66913476617174L707.2117549427757 357.66913476617174Q715.1007835974025 357.66913476617174 721.5529788544512 355.4732195736467Q727.9780640473947 353.2773043811218 733.0205359709706 349.48189540638725Q738.0358978304413 345.65937636754745 741.641536356439 340.40002393112957Q745.2742849465421 335.1406714947117 747.6599705878039 329.04090707103114Q750.0456562290655 322.9411426473506 751.1571688573807 316.13651655693366Q752.295791549801 309.359000530622 752.295791549801 302.44593418378406Z " fill="#E2V144" transform="matrix(1.1325376936526093,0,0,1.132537693652609,0,-38.92379466476065)"/></g></svg>